<svg width="1512" height="885" viewBox="0 0 1512 885" fill="none" xmlns="http://www.w3.org/2000/svg">
<g opacity="0.08" clip-path="url(#clip0_2035_14298)">
<g clip-path="url(#clip1_2035_14298)">
<path d="M0.000289917 97.8V91.6503C39.9415 91.6055 78.2339 75.7191 106.477 47.4763C134.719 19.2336 150.606 -19.0588 150.651 -59L156.8 -59C156.753 -17.4284 140.218 22.427 110.823 51.8225C81.4273 81.2181 41.5718 97.7531 0.000289917 97.8Z" fill="#7FCFDD"/>
<path d="M-2.28882e-05 63.5925V57.5024C61.3088 57.5024 111.199 5.23625 111.199 -59H117.286C117.286 8.59805 64.6753 63.5925 -2.28882e-05 63.5925Z" fill="#7FCFDD"/>
<path d="M7.62939e-05 22.3996V16.1386C19.9213 16.1166 39.0203 8.19314 53.1068 -5.89331C67.1932 -19.9798 75.1166 -39.0788 75.1386 -59L81.3997 -59C81.3752 -37.419 72.7913 -16.7289 57.5312 -1.46885C42.2712 13.7912 21.5811 22.3751 7.62939e-05 22.3996Z" fill="#7FCFDD"/>
</g>
<g clip-path="url(#clip2_2035_14298)">
<path d="M161.512 36.9224C179.934 36.9224 179.934 1.87757 198.36 1.87757C216.786 1.87757 216.776 36.9224 235.192 36.9224C253.608 36.9224 253.621 1.87757 272.05 1.87757C290.478 1.87757 290.475 36.9224 308.904 36.9224" stroke="#32DAFF" stroke-width="9.408" stroke-linecap="round" stroke-linejoin="round"/>
</g>
<g clip-path="url(#clip3_2035_14298)">
<path d="M78.4007 176.194L41.5449 213.05L78.4007 249.906L115.256 213.05L78.4007 176.194Z" stroke="#6DF2F6" stroke-width="9.408" stroke-linecap="round" stroke-linejoin="round"/>
<path d="M78.4016 102.511L41.5459 139.367L78.4016 176.223L115.257 139.367L78.4016 102.511Z" stroke="#6DF2F6" stroke-width="9.408" stroke-linecap="round" stroke-linejoin="round"/>
</g>
<g clip-path="url(#clip4_2035_14298)">
<path d="M487.8 8.99998V15.1497C447.859 15.1945 409.566 31.0809 381.324 59.3236C353.081 87.5663 337.195 125.859 337.15 165.8H331C331.047 124.228 347.582 84.373 376.977 54.9774C406.373 25.5819 446.228 9.04687 487.8 8.99998Z" fill="#7FCFDD"/>
<path d="M487.8 43.2075V49.2976C426.492 49.2976 376.601 101.564 376.601 165.8H370.514C370.514 98.2019 423.125 43.2075 487.8 43.2075Z" fill="#7FCFDD"/>
<path d="M487.8 84.4004V90.6614C467.879 90.6834 448.78 98.6068 434.693 112.693C420.607 126.78 412.683 145.879 412.661 165.8H406.4C406.425 144.219 415.009 123.529 430.269 108.269C445.529 93.0088 466.219 84.4249 487.8 84.4004Z" fill="#7FCFDD"/>
<path d="M487.8 125.203V131.216C478.631 131.227 469.84 134.874 463.357 141.357C456.873 147.84 453.226 156.631 453.216 165.8H447.203C447.215 155.037 451.496 144.718 459.107 137.107C466.718 129.497 477.037 125.215 487.8 125.203Z" fill="#7FCFDD"/>
</g>
<g clip-path="url(#clip5_2035_14298)">
<path d="M475.108 36.9224C493.531 36.9224 493.531 1.87757 511.956 1.87757C530.382 1.87757 530.372 36.9224 548.788 36.9224C567.205 36.9224 567.217 1.87757 585.646 1.87757C604.075 1.87757 604.071 36.9224 622.5 36.9224" stroke="#32DAFF" stroke-width="9.408" stroke-linecap="round" stroke-linejoin="round"/>
</g>
<g clip-path="url(#clip6_2035_14298)">
<path d="M285.4 176.386L248.545 213.242L285.4 250.098L322.256 213.242L285.4 176.386Z" stroke="#6DF2F6" stroke-width="9.408" stroke-linecap="round" stroke-linejoin="round"/>
<path d="M285.402 102.703L248.546 139.559L285.402 176.415L322.257 139.559L285.402 102.703Z" stroke="#6DF2F6" stroke-width="9.408" stroke-linecap="round" stroke-linejoin="round"/>
</g>
<g clip-path="url(#clip7_2035_14298)">
<path d="M862.4 76.5661C856.537 76.5661 851.783 81.3195 851.783 87.1831C851.783 93.0466 856.537 97.8 862.4 97.8C868.264 97.8 873.017 93.0466 873.017 87.1831C873.017 81.3195 868.264 76.5661 862.4 76.5661Z" fill="#7FCFDD" stroke="#7FCFDD" stroke-width="1.568" stroke-linejoin="round"/>
<path d="M862.4 42.6754C856.537 42.6754 851.783 47.4287 851.783 53.2923C851.783 59.1559 856.537 63.9092 862.4 63.9092C868.264 63.9092 873.017 59.1559 873.017 53.2923C873.017 47.4287 868.264 42.6754 862.4 42.6754Z" fill="#7FCFDD" stroke="#7FCFDD" stroke-width="1.568" stroke-linejoin="round"/>
<path d="M862.4 8.78311C856.537 8.78311 851.783 13.5365 851.783 19.4C851.783 25.2636 856.537 30.017 862.4 30.017C868.264 30.017 873.017 25.2636 873.017 19.4C873.017 13.5365 868.264 8.78311 862.4 8.78311Z" fill="#7FCFDD" stroke="#7FCFDD" stroke-width="1.568" stroke-linejoin="round"/>
<path d="M794.617 8.78311C788.754 8.78311 784.001 13.5365 784.001 19.4C784.001 25.2636 788.754 30.017 794.617 30.017C800.481 30.017 805.234 25.2636 805.234 19.4C805.234 13.5365 800.481 8.78311 794.617 8.78311Z" fill="#7FCFDD" stroke="#7FCFDD" stroke-width="1.568" stroke-linejoin="round"/>
<path d="M828.508 8.78311C822.644 8.78311 817.891 13.5365 817.891 19.4C817.891 25.2636 822.644 30.017 828.508 30.017C834.371 30.017 839.125 25.2636 839.125 19.4C839.125 13.5365 834.371 8.78311 828.508 8.78311Z" fill="#7FCFDD" stroke="#7FCFDD" stroke-width="1.568" stroke-linejoin="round"/>
<path d="M896.293 8.78311C890.429 8.78311 885.676 13.5365 885.676 19.4C885.676 25.2636 890.429 30.017 896.293 30.017C902.156 30.017 906.91 25.2636 906.91 19.4C906.91 13.5365 902.156 8.78311 896.293 8.78311Z" fill="#7FCFDD" stroke="#7FCFDD" stroke-width="1.568" stroke-linejoin="round"/>
<path d="M930.183 8.78311C924.32 8.78311 919.566 13.5365 919.566 19.4C919.566 25.2636 924.32 30.017 930.183 30.017C936.047 30.017 940.8 25.2636 940.8 19.4C940.8 13.5365 936.047 8.78311 930.183 8.78311Z" fill="#7FCFDD" stroke="#7FCFDD" stroke-width="1.568" stroke-linejoin="round"/>
</g>
<g clip-path="url(#clip8_2035_14298)">
<path d="M648.426 69.2078C648.426 63.3442 643.673 58.5909 637.809 58.5909C631.945 58.5909 627.192 63.3442 627.192 69.2078C627.192 75.0713 631.945 79.8247 637.809 79.8247C643.673 79.8247 648.426 75.0713 648.426 69.2078Z" fill="#7FCFDD" stroke="#7FCFDD" stroke-width="1.568" stroke-linejoin="round"/>
<path d="M682.317 69.2078C682.317 63.3442 677.563 58.5909 671.7 58.5909C665.836 58.5909 661.083 63.3442 661.083 69.2078C661.083 75.0713 665.836 79.8247 671.7 79.8247C677.563 79.8247 682.317 75.0713 682.317 69.2078Z" fill="#7FCFDD" stroke="#7FCFDD" stroke-width="1.568" stroke-linejoin="round"/>
<path d="M716.209 69.2078C716.209 63.3442 711.456 58.5909 705.592 58.5909C699.729 58.5909 694.975 63.3442 694.975 69.2078C694.975 75.0713 699.729 79.8247 705.592 79.8247C711.456 79.8247 716.209 75.0713 716.209 69.2078Z" fill="#7FCFDD" stroke="#7FCFDD" stroke-width="1.568" stroke-linejoin="round"/>
<path d="M750.102 69.2078C750.102 63.3442 745.348 58.5909 739.485 58.5909C733.621 58.5909 728.868 63.3442 728.868 69.2078C728.868 75.0713 733.621 79.8247 739.485 79.8247C745.348 79.8247 750.102 75.0713 750.102 69.2078Z" fill="#7FCFDD" stroke="#7FCFDD" stroke-width="1.568" stroke-linejoin="round"/>
<path d="M783.992 69.2078C783.992 63.3442 779.239 58.5909 773.375 58.5909C767.512 58.5909 762.758 63.3442 762.758 69.2078C762.758 75.0713 767.512 79.8247 773.375 79.8247C779.239 79.8247 783.992 75.0713 783.992 69.2078Z" fill="#7FCFDD" stroke="#7FCFDD" stroke-width="1.568" stroke-linejoin="round"/>
<path d="M716.209 1.4247C716.209 -4.43886 711.456 -9.19223 705.592 -9.19223C699.729 -9.19223 694.975 -4.43886 694.975 1.4247C694.975 7.28827 699.729 12.0416 705.592 12.0416C711.456 12.0416 716.209 7.28827 716.209 1.4247Z" fill="#7FCFDD" stroke="#7FCFDD" stroke-width="1.568" stroke-linejoin="round"/>
<path d="M716.209 35.3155C716.209 29.4519 711.456 24.6986 705.592 24.6986C699.729 24.6986 694.975 29.4519 694.975 35.3155C694.975 41.1791 699.729 45.9324 705.592 45.9324C711.456 45.9324 716.209 41.1791 716.209 35.3155Z" fill="#7FCFDD" stroke="#7FCFDD" stroke-width="1.568" stroke-linejoin="round"/>
<path d="M716.209 103.1C716.209 97.2365 711.456 92.4832 705.592 92.4832C699.729 92.4832 694.975 97.2365 694.975 103.1C694.975 108.964 699.729 113.717 705.592 113.717C711.456 113.717 716.209 108.964 716.209 103.1Z" fill="#7FCFDD" stroke="#7FCFDD" stroke-width="1.568" stroke-linejoin="round"/>
<path d="M716.209 136.991C716.209 131.127 711.456 126.374 705.592 126.374C699.729 126.374 694.975 131.127 694.975 136.991C694.975 142.854 699.729 147.608 705.592 147.608C711.456 147.608 716.209 142.854 716.209 136.991Z" fill="#7FCFDD" stroke="#7FCFDD" stroke-width="1.568" stroke-linejoin="round"/>
</g>
<g clip-path="url(#clip9_2035_14298)">
<path d="M643.096 513.878C624.674 513.878 624.674 548.922 606.248 548.922C587.822 548.922 587.832 513.878 569.416 513.878C550.999 513.878 550.987 548.922 532.558 548.922C514.13 548.922 514.133 513.878 495.704 513.878" stroke="#32DAFF" stroke-width="9.408" stroke-linecap="round" stroke-linejoin="round"/>
</g>
<g clip-path="url(#clip10_2035_14298)">
<path d="M1193.52 93.0961C1193.52 74.6736 1158.47 74.6736 1158.47 56.2481C1158.47 37.8225 1193.52 37.8319 1193.52 19.4157C1193.52 0.999589 1158.47 0.987045 1158.47 -17.4417C1158.47 -35.8704 1193.52 -35.8672 1193.52 -54.2959" stroke="#32DAFF" stroke-width="9.408" stroke-linecap="round" stroke-linejoin="round"/>
</g>
<g clip-path="url(#clip11_2035_14298)">
<path d="M1160.23 250.4C1160.23 244.536 1155.48 239.783 1149.62 239.783C1143.75 239.783 1139 244.536 1139 250.4C1139 256.264 1143.75 261.017 1149.62 261.017C1155.48 261.017 1160.23 256.264 1160.23 250.4Z" fill="#7FCFDD" stroke="#7FCFDD" stroke-width="1.568" stroke-linejoin="round"/>
<path d="M1194.12 250.4C1194.12 244.536 1189.37 239.783 1183.51 239.783C1177.64 239.783 1172.89 244.536 1172.89 250.4C1172.89 256.264 1177.64 261.017 1183.51 261.017C1189.37 261.017 1194.12 256.264 1194.12 250.4Z" fill="#7FCFDD" stroke="#7FCFDD" stroke-width="1.568" stroke-linejoin="round"/>
<path d="M1228.02 250.4C1228.02 244.536 1223.26 239.783 1217.4 239.783C1211.54 239.783 1206.78 244.536 1206.78 250.4C1206.78 256.264 1211.54 261.017 1217.4 261.017C1223.26 261.017 1228.02 256.264 1228.02 250.4Z" fill="#7FCFDD" stroke="#7FCFDD" stroke-width="1.568" stroke-linejoin="round"/>
<path d="M1261.91 250.4C1261.91 244.536 1257.16 239.783 1251.29 239.783C1245.43 239.783 1240.68 244.536 1240.68 250.4C1240.68 256.264 1245.43 261.017 1251.29 261.017C1257.16 261.017 1261.91 256.264 1261.91 250.4Z" fill="#7FCFDD" stroke="#7FCFDD" stroke-width="1.568" stroke-linejoin="round"/>
<path d="M1295.8 250.4C1295.8 244.536 1291.05 239.783 1285.18 239.783C1279.32 239.783 1274.57 244.536 1274.57 250.4C1274.57 256.264 1279.32 261.017 1285.18 261.017C1291.05 261.017 1295.8 256.264 1295.8 250.4Z" fill="#7FCFDD" stroke="#7FCFDD" stroke-width="1.568" stroke-linejoin="round"/>
<path d="M1228.02 182.617C1228.02 176.753 1223.26 172 1217.4 172C1211.54 172 1206.78 176.753 1206.78 182.617C1206.78 188.48 1211.54 193.234 1217.4 193.234C1223.26 193.234 1228.02 188.48 1228.02 182.617Z" fill="#7FCFDD" stroke="#7FCFDD" stroke-width="1.568" stroke-linejoin="round"/>
<path d="M1228.02 216.508C1228.02 210.644 1223.26 205.891 1217.4 205.891C1211.54 205.891 1206.78 210.644 1206.78 216.508C1206.78 222.371 1211.54 227.125 1217.4 227.125C1223.26 227.125 1228.02 222.371 1228.02 216.508Z" fill="#7FCFDD" stroke="#7FCFDD" stroke-width="1.568" stroke-linejoin="round"/>
<path d="M1228.02 284.292C1228.02 278.429 1223.26 273.675 1217.4 273.675C1211.54 273.675 1206.78 278.429 1206.78 284.292C1206.78 290.156 1211.54 294.909 1217.4 294.909C1223.26 294.909 1228.02 290.156 1228.02 284.292Z" fill="#7FCFDD" stroke="#7FCFDD" stroke-width="1.568" stroke-linejoin="round"/>
<path d="M1228.02 318.183C1228.02 312.319 1223.26 307.566 1217.4 307.566C1211.54 307.566 1206.78 312.319 1206.78 318.183C1206.78 324.047 1211.54 328.8 1217.4 328.8C1223.26 328.8 1228.02 324.047 1228.02 318.183Z" fill="#7FCFDD" stroke="#7FCFDD" stroke-width="1.568" stroke-linejoin="round"/>
</g>
<g clip-path="url(#clip12_2035_14298)">
<path d="M1363.4 268.415L1326.54 305.271L1363.4 342.126L1400.26 305.271L1363.4 268.415Z" stroke="#6DF2F6" stroke-width="9.408" stroke-linecap="round" stroke-linejoin="round"/>
<path d="M1363.4 183.703L1326.55 220.559L1363.4 257.415L1400.26 220.559L1363.4 183.703Z" stroke="#6DF2F6" stroke-width="9.408" stroke-linecap="round" stroke-linejoin="round"/>
</g>
<g clip-path="url(#clip13_2035_14298)">
<path d="M78.3862 489.804L115.242 526.66L152.098 489.804L115.242 452.948L78.3862 489.804Z" stroke="#6DF2F6" stroke-width="9.408" stroke-linecap="round" stroke-linejoin="round"/>
<path d="M4.70335 489.803L41.5591 526.658L78.4148 489.803L41.5591 452.947L4.70335 489.803Z" stroke="#6DF2F6" stroke-width="9.408" stroke-linecap="round" stroke-linejoin="round"/>
</g>
<g clip-path="url(#clip14_2035_14298)">
<path d="M270.566 288.4C270.566 294.264 275.32 299.017 281.183 299.017C287.047 299.017 291.8 294.264 291.8 288.4C291.8 282.536 287.047 277.783 281.183 277.783C275.32 277.783 270.566 282.536 270.566 288.4Z" fill="#7FCFDD" stroke="#7FCFDD" stroke-width="1.568" stroke-linejoin="round"/>
<path d="M236.676 288.4C236.676 294.264 241.429 299.017 247.292 299.017C253.156 299.017 257.909 294.264 257.909 288.4C257.909 282.536 253.156 277.783 247.292 277.783C241.429 277.783 236.676 282.536 236.676 288.4Z" fill="#7FCFDD" stroke="#7FCFDD" stroke-width="1.568" stroke-linejoin="round"/>
<path d="M202.783 288.4C202.783 294.264 207.536 299.017 213.4 299.017C219.263 299.017 224.017 294.264 224.017 288.4C224.017 282.536 219.263 277.783 213.4 277.783C207.536 277.783 202.783 282.536 202.783 288.4Z" fill="#7FCFDD" stroke="#7FCFDD" stroke-width="1.568" stroke-linejoin="round"/>
<path d="M168.891 288.4C168.891 294.264 173.644 299.017 179.508 299.017C185.371 299.017 190.125 294.264 190.125 288.4C190.125 282.536 185.371 277.783 179.508 277.783C173.644 277.783 168.891 282.536 168.891 288.4Z" fill="#7FCFDD" stroke="#7FCFDD" stroke-width="1.568" stroke-linejoin="round"/>
<path d="M135 288.4C135 294.264 139.753 299.017 145.617 299.017C151.481 299.017 156.234 294.264 156.234 288.4C156.234 282.536 151.481 277.783 145.617 277.783C139.753 277.783 135 282.536 135 288.4Z" fill="#7FCFDD" stroke="#7FCFDD" stroke-width="1.568" stroke-linejoin="round"/>
<path d="M202.783 356.183C202.783 362.047 207.536 366.8 213.4 366.8C219.263 366.8 224.017 362.047 224.017 356.183C224.017 350.319 219.263 345.566 213.4 345.566C207.536 345.566 202.783 350.319 202.783 356.183Z" fill="#7FCFDD" stroke="#7FCFDD" stroke-width="1.568" stroke-linejoin="round"/>
<path d="M202.783 322.292C202.783 328.156 207.536 332.909 213.4 332.909C219.263 332.909 224.017 328.156 224.017 322.292C224.017 316.429 219.263 311.675 213.4 311.675C207.536 311.675 202.783 316.429 202.783 322.292Z" fill="#7FCFDD" stroke="#7FCFDD" stroke-width="1.568" stroke-linejoin="round"/>
<path d="M202.783 254.508C202.783 260.371 207.536 265.125 213.4 265.125C219.263 265.125 224.017 260.371 224.017 254.508C224.017 248.644 219.263 243.891 213.4 243.891C207.536 243.891 202.783 248.644 202.783 254.508Z" fill="#7FCFDD" stroke="#7FCFDD" stroke-width="1.568" stroke-linejoin="round"/>
<path d="M202.783 220.617C202.783 226.48 207.536 231.234 213.4 231.234C219.263 231.234 224.017 226.48 224.017 220.617C224.017 214.753 219.263 210 213.4 210C207.536 210 202.783 214.753 202.783 220.617Z" fill="#7FCFDD" stroke="#7FCFDD" stroke-width="1.568" stroke-linejoin="round"/>
</g>
<g clip-path="url(#clip15_2035_14298)">
<path d="M330.8 356V362.15C290.859 362.195 252.566 378.081 224.324 406.324C196.081 434.566 180.195 472.859 180.15 512.8H174C174.047 471.228 190.582 431.373 219.977 401.978C249.373 372.582 289.228 356.047 330.8 356Z" fill="#7FCFDD"/>
<path d="M330.8 390.208V396.298C269.492 396.298 219.601 448.564 219.601 512.8H213.514C213.514 445.202 266.125 390.208 330.8 390.208Z" fill="#7FCFDD"/>
<path d="M330.8 431.4V437.661C310.879 437.683 291.78 445.607 277.693 459.693C263.607 473.78 255.683 492.879 255.661 512.8H249.4C249.425 491.219 258.009 470.529 273.269 455.269C288.529 440.009 309.219 431.425 330.8 431.4Z" fill="#7FCFDD"/>
<path d="M330.8 472.203V478.216C321.631 478.227 312.84 481.874 306.357 488.357C299.873 494.841 296.226 503.631 296.216 512.8H290.203C290.215 502.037 294.496 491.718 302.107 484.107C309.718 476.497 320.037 472.215 330.8 472.203Z" fill="#7FCFDD"/>
</g>
<g clip-path="url(#clip16_2035_14298)">
<path d="M211.234 855.4C211.234 849.536 206.48 844.783 200.617 844.783C194.753 844.783 190 849.536 190 855.4C190 861.264 194.753 866.017 200.617 866.017C206.48 866.017 211.234 861.264 211.234 855.4Z" fill="#7FCFDD" stroke="#7FCFDD" stroke-width="1.568" stroke-linejoin="round"/>
<path d="M245.124 855.4C245.124 849.536 240.371 844.783 234.507 844.783C228.644 844.783 223.89 849.536 223.89 855.4C223.89 861.264 228.644 866.017 234.507 866.017C240.371 866.017 245.124 861.264 245.124 855.4Z" fill="#7FCFDD" stroke="#7FCFDD" stroke-width="1.568" stroke-linejoin="round"/>
<path d="M279.017 855.4C279.017 849.536 274.263 844.783 268.4 844.783C262.536 844.783 257.783 849.536 257.783 855.4C257.783 861.264 262.536 866.017 268.4 866.017C274.263 866.017 279.017 861.264 279.017 855.4Z" fill="#7FCFDD" stroke="#7FCFDD" stroke-width="1.568" stroke-linejoin="round"/>
<path d="M312.909 855.4C312.909 849.536 308.156 844.783 302.292 844.783C296.429 844.783 291.675 849.536 291.675 855.4C291.675 861.264 296.429 866.017 302.292 866.017C308.156 866.017 312.909 861.264 312.909 855.4Z" fill="#7FCFDD" stroke="#7FCFDD" stroke-width="1.568" stroke-linejoin="round"/>
<path d="M346.8 855.4C346.8 849.536 342.046 844.783 336.183 844.783C330.319 844.783 325.566 849.536 325.566 855.4C325.566 861.264 330.319 866.017 336.183 866.017C342.046 866.017 346.8 861.264 346.8 855.4Z" fill="#7FCFDD" stroke="#7FCFDD" stroke-width="1.568" stroke-linejoin="round"/>
<path d="M279.017 787.617C279.017 781.753 274.263 777 268.4 777C262.536 777 257.783 781.753 257.783 787.617C257.783 793.481 262.536 798.234 268.4 798.234C274.263 798.234 279.017 793.481 279.017 787.617Z" fill="#7FCFDD" stroke="#7FCFDD" stroke-width="1.568" stroke-linejoin="round"/>
<path d="M279.017 821.508C279.017 815.644 274.263 810.891 268.4 810.891C262.536 810.891 257.783 815.644 257.783 821.508C257.783 827.371 262.536 832.125 268.4 832.125C274.263 832.125 279.017 827.371 279.017 821.508Z" fill="#7FCFDD" stroke="#7FCFDD" stroke-width="1.568" stroke-linejoin="round"/>
<path d="M279.017 889.292C279.017 883.429 274.263 878.675 268.4 878.675C262.536 878.675 257.783 883.429 257.783 889.292C257.783 895.156 262.536 899.909 268.4 899.909C274.263 899.909 279.017 895.156 279.017 889.292Z" fill="#7FCFDD" stroke="#7FCFDD" stroke-width="1.568" stroke-linejoin="round"/>
</g>
<g clip-path="url(#clip17_2035_14298)">
<path d="M428.698 557.696L421.093 506.132L369.529 513.738L377.134 565.302L428.698 557.696Z" stroke="#6DF2F6" stroke-width="9.408" stroke-linecap="round" stroke-linejoin="round"/>
<path d="M487.844 601.639L480.239 550.075L428.675 557.68L436.28 609.244L487.844 601.639Z" stroke="#6DF2F6" stroke-width="9.408" stroke-linecap="round" stroke-linejoin="round"/>
</g>
<g clip-path="url(#clip18_2035_14298)">
<path d="M228.704 694.922C247.127 694.922 247.127 659.878 265.552 659.878C283.978 659.878 283.968 694.922 302.384 694.922C320.801 694.922 320.813 659.878 339.242 659.878C357.671 659.878 357.667 694.922 376.096 694.922" stroke="#32DAFF" stroke-width="9.408" stroke-linecap="round" stroke-linejoin="round"/>
</g>
<g clip-path="url(#clip19_2035_14298)">
<path d="M1105 894.8V888.65C1144.94 888.605 1183.23 872.719 1211.48 844.476C1239.72 816.234 1255.61 777.941 1255.65 738H1261.8C1261.75 779.572 1245.22 819.427 1215.82 848.823C1186.43 878.218 1146.57 894.753 1105 894.8Z" fill="#7FCFDD"/>
<path d="M1105 860.593V854.502C1166.31 854.502 1216.2 802.236 1216.2 738H1222.29C1222.29 805.598 1169.68 860.593 1105 860.593Z" fill="#7FCFDD"/>
<path d="M1105 819.4V813.139C1124.92 813.117 1144.02 805.193 1158.11 791.107C1172.19 777.02 1180.12 757.921 1180.14 738H1186.4C1186.38 759.581 1177.79 780.271 1162.53 795.531C1147.27 810.791 1126.58 819.375 1105 819.4Z" fill="#7FCFDD"/>
<path d="M1105 778.597V772.584C1114.17 772.573 1122.96 768.926 1129.44 762.443C1135.93 755.96 1139.57 747.169 1139.58 738H1145.6C1145.59 748.763 1141.3 759.082 1133.69 766.693C1126.08 774.303 1115.76 778.585 1105 778.597Z" fill="#7FCFDD"/>
</g>
<g clip-path="url(#clip20_2035_14298)">
<path d="M1111.1 95.8776C1092.67 95.8776 1092.67 130.922 1074.25 130.922C1055.82 130.922 1055.83 95.8776 1037.42 95.8776C1019 95.8776 1018.99 130.922 1000.56 130.922C982.13 130.922 982.133 95.8776 963.704 95.8776" stroke="#32DAFF" stroke-width="9.408" stroke-linecap="round" stroke-linejoin="round"/>
</g>
<g clip-path="url(#clip21_2035_14298)">
<path d="M973.386 528.4L1010.24 565.255L1047.1 528.4L1010.24 491.544L973.386 528.4Z" stroke="#6DF2F6" stroke-width="9.408" stroke-linecap="round" stroke-linejoin="round"/>
<path d="M899.703 528.399L936.559 565.254L973.415 528.399L936.559 491.543L899.703 528.399Z" stroke="#6DF2F6" stroke-width="9.408" stroke-linecap="round" stroke-linejoin="round"/>
</g>
<g clip-path="url(#clip22_2035_14298)">
<path d="M1326.7 111.922C1345.13 111.922 1345.13 76.8777 1363.55 76.8777C1381.98 76.8777 1381.97 111.922 1400.38 111.922C1418.8 111.922 1418.81 76.8777 1437.24 76.8777C1455.67 76.8777 1455.67 111.922 1474.1 111.922" stroke="#32DAFF" stroke-width="9.408" stroke-linecap="round" stroke-linejoin="round"/>
</g>
<g clip-path="url(#clip23_2035_14298)">
<path d="M1332.8 432.638C1338.67 432.638 1343.42 427.885 1343.42 422.021C1343.42 416.157 1338.67 411.404 1332.8 411.404C1326.94 411.404 1322.19 416.157 1322.19 422.021C1322.19 427.885 1326.94 432.638 1332.8 432.638Z" fill="#7FCFDD" stroke="#7FCFDD" stroke-width="1.568" stroke-linejoin="round"/>
<path d="M1332.8 466.529C1338.67 466.529 1343.42 461.775 1343.42 455.912C1343.42 450.048 1338.67 445.295 1332.8 445.295C1326.94 445.295 1322.19 450.048 1322.19 455.912C1322.19 461.775 1326.94 466.529 1332.8 466.529Z" fill="#7FCFDD" stroke="#7FCFDD" stroke-width="1.568" stroke-linejoin="round"/>
<path d="M1332.8 500.421C1338.67 500.421 1343.42 495.668 1343.42 489.804C1343.42 483.941 1338.67 479.187 1332.8 479.187C1326.94 479.187 1322.19 483.941 1322.19 489.804C1322.19 495.668 1326.94 500.421 1332.8 500.421Z" fill="#7FCFDD" stroke="#7FCFDD" stroke-width="1.568" stroke-linejoin="round"/>
<path d="M1332.8 534.313C1338.67 534.313 1343.42 529.56 1343.42 523.696C1343.42 517.833 1338.67 513.08 1332.8 513.08C1326.94 513.08 1322.19 517.833 1322.19 523.696C1322.19 529.56 1326.94 534.313 1332.8 534.313Z" fill="#7FCFDD" stroke="#7FCFDD" stroke-width="1.568" stroke-linejoin="round"/>
<path d="M1332.8 568.204C1338.67 568.204 1343.42 563.451 1343.42 557.587C1343.42 551.724 1338.67 546.97 1332.8 546.97C1326.94 546.97 1322.19 551.724 1322.19 557.587C1322.19 563.451 1326.94 568.204 1332.8 568.204Z" fill="#7FCFDD" stroke="#7FCFDD" stroke-width="1.568" stroke-linejoin="round"/>
<path d="M1400.59 500.421C1406.45 500.421 1411.2 495.668 1411.2 489.804C1411.2 483.941 1406.45 479.187 1400.59 479.187C1394.72 479.187 1389.97 483.941 1389.97 489.804C1389.97 495.668 1394.72 500.421 1400.59 500.421Z" fill="#7FCFDD" stroke="#7FCFDD" stroke-width="1.568" stroke-linejoin="round"/>
<path d="M1366.7 500.421C1372.56 500.421 1377.31 495.668 1377.31 489.804C1377.31 483.941 1372.56 479.187 1366.7 479.187C1360.83 479.187 1356.08 483.941 1356.08 489.804C1356.08 495.668 1360.83 500.421 1366.7 500.421Z" fill="#7FCFDD" stroke="#7FCFDD" stroke-width="1.568" stroke-linejoin="round"/>
<path d="M1298.91 500.421C1304.77 500.421 1309.53 495.668 1309.53 489.804C1309.53 483.941 1304.77 479.187 1298.91 479.187C1293.05 479.187 1288.29 483.941 1288.29 489.804C1288.29 495.668 1293.05 500.421 1298.91 500.421Z" fill="#7FCFDD" stroke="#7FCFDD" stroke-width="1.568" stroke-linejoin="round"/>
<path d="M1265.02 500.421C1270.88 500.421 1275.64 495.668 1275.64 489.804C1275.64 483.941 1270.88 479.187 1265.02 479.187C1259.16 479.187 1254.4 483.941 1254.4 489.804C1254.4 495.668 1259.16 500.421 1265.02 500.421Z" fill="#7FCFDD" stroke="#7FCFDD" stroke-width="1.568" stroke-linejoin="round"/>
</g>
<g clip-path="url(#clip24_2035_14298)">
<path d="M1450.88 413.704C1450.88 432.126 1485.92 432.126 1485.92 450.552C1485.92 468.978 1450.88 468.968 1450.88 487.384C1450.88 505.8 1485.92 505.813 1485.92 524.242C1485.92 542.67 1450.88 542.667 1450.88 561.096" stroke="#32DAFF" stroke-width="9.408" stroke-linecap="round" stroke-linejoin="round"/>
</g>
<g clip-path="url(#clip25_2035_14298)">
<path d="M82.2339 643.4C82.2339 637.536 77.4805 632.783 71.6169 632.783C65.7534 632.783 61 637.536 61 643.4C61 649.264 65.7534 654.017 71.6169 654.017C77.4805 654.017 82.2339 649.264 82.2339 643.4Z" fill="#7FCFDD" stroke="#7FCFDD" stroke-width="1.568" stroke-linejoin="round"/>
<path d="M116.124 643.4C116.124 637.536 111.371 632.783 105.507 632.783C99.6437 632.783 94.8904 637.536 94.8904 643.4C94.8904 649.264 99.6437 654.017 105.507 654.017C111.371 654.017 116.124 649.264 116.124 643.4Z" fill="#7FCFDD" stroke="#7FCFDD" stroke-width="1.568" stroke-linejoin="round"/>
<path d="M150.017 643.4C150.017 637.536 145.264 632.783 139.4 632.783C133.537 632.783 128.783 637.536 128.783 643.4C128.783 649.264 133.537 654.017 139.4 654.017C145.264 654.017 150.017 649.264 150.017 643.4Z" fill="#7FCFDD" stroke="#7FCFDD" stroke-width="1.568" stroke-linejoin="round"/>
<path d="M183.909 643.4C183.909 637.536 179.156 632.783 173.292 632.783C167.429 632.783 162.676 637.536 162.676 643.4C162.676 649.264 167.429 654.017 173.292 654.017C179.156 654.017 183.909 649.264 183.909 643.4Z" fill="#7FCFDD" stroke="#7FCFDD" stroke-width="1.568" stroke-linejoin="round"/>
<path d="M217.8 643.4C217.8 637.536 213.046 632.783 207.183 632.783C201.319 632.783 196.566 637.536 196.566 643.4C196.566 649.264 201.319 654.017 207.183 654.017C213.046 654.017 217.8 649.264 217.8 643.4Z" fill="#7FCFDD" stroke="#7FCFDD" stroke-width="1.568" stroke-linejoin="round"/>
<path d="M150.017 575.617C150.017 569.753 145.264 565 139.4 565C133.537 565 128.783 569.753 128.783 575.617C128.783 581.481 133.537 586.234 139.4 586.234C145.264 586.234 150.017 581.481 150.017 575.617Z" fill="#7FCFDD" stroke="#7FCFDD" stroke-width="1.568" stroke-linejoin="round"/>
<path d="M150.017 609.508C150.017 603.644 145.264 598.891 139.4 598.891C133.537 598.891 128.783 603.644 128.783 609.508C128.783 615.371 133.537 620.125 139.4 620.125C145.264 620.125 150.017 615.371 150.017 609.508Z" fill="#7FCFDD" stroke="#7FCFDD" stroke-width="1.568" stroke-linejoin="round"/>
<path d="M150.017 677.292C150.017 671.429 145.264 666.675 139.4 666.675C133.537 666.675 128.783 671.429 128.783 677.292C128.783 683.156 133.537 687.909 139.4 687.909C145.264 687.909 150.017 683.156 150.017 677.292Z" fill="#7FCFDD" stroke="#7FCFDD" stroke-width="1.568" stroke-linejoin="round"/>
<path d="M150.017 711.183C150.017 705.319 145.264 700.566 139.4 700.566C133.537 700.566 128.783 705.319 128.783 711.183C128.783 717.047 133.537 721.8 139.4 721.8C145.264 721.8 150.017 717.047 150.017 711.183Z" fill="#7FCFDD" stroke="#7FCFDD" stroke-width="1.568" stroke-linejoin="round"/>
</g>
<g clip-path="url(#clip26_2035_14298)">
<path d="M78.3862 803.4L115.242 840.255L152.098 803.4L115.242 766.544L78.3862 803.4Z" stroke="#6DF2F6" stroke-width="9.408" stroke-linecap="round" stroke-linejoin="round"/>
<path d="M4.70335 803.399L41.5591 840.254L78.4148 803.399L41.5591 766.543L4.70335 803.399Z" stroke="#6DF2F6" stroke-width="9.408" stroke-linecap="round" stroke-linejoin="round"/>
</g>
<g clip-path="url(#clip27_2035_14298)">
<path d="M475.108 664.115C493.531 664.115 493.531 629.07 511.956 629.07C530.382 629.07 530.372 664.115 548.788 664.115C567.205 664.115 567.217 629.07 585.646 629.07C604.075 629.07 604.071 664.115 622.5 664.115" stroke="#32DAFF" stroke-width="9.408" stroke-linecap="round" stroke-linejoin="round"/>
</g>
<g clip-path="url(#clip28_2035_14298)">
<path d="M865.8 605.8H859.65C859.605 565.859 843.719 527.566 815.476 499.324C787.234 471.081 748.941 455.195 709 455.15V449C750.572 449.047 790.427 465.582 819.823 494.977C849.218 524.373 865.753 564.228 865.8 605.8Z" fill="#7FCFDD"/>
<path d="M831.593 605.8H825.502C825.502 544.491 773.236 494.601 709 494.601V488.514C776.598 488.514 831.593 541.125 831.593 605.8Z" fill="#7FCFDD"/>
<path d="M790.4 605.8H784.139C784.117 585.879 776.193 566.78 762.107 552.693C748.02 538.607 728.921 530.683 709 530.661V524.4C730.581 524.425 751.271 533.009 766.531 548.269C781.791 563.529 790.375 584.219 790.4 605.8Z" fill="#7FCFDD"/>
<path d="M749.597 605.8H743.584C743.573 596.631 739.926 587.841 733.443 581.357C726.96 574.874 718.169 571.227 709 571.216V565.203C719.763 565.215 730.082 569.497 737.693 577.107C745.303 584.718 749.585 595.037 749.597 605.8Z" fill="#7FCFDD"/>
</g>
<g clip-path="url(#clip29_2035_14298)">
<path d="M862.414 646.592L825.558 609.737L788.703 646.592L825.558 683.448L862.414 646.592Z" stroke="#6DF2F6" stroke-width="9.408" stroke-linecap="round" stroke-linejoin="round"/>
<path d="M936.097 646.593L899.241 609.738L862.385 646.593L899.241 683.449L936.097 646.593Z" stroke="#6DF2F6" stroke-width="9.408" stroke-linecap="round" stroke-linejoin="round"/>
</g>
<g clip-path="url(#clip30_2035_14298)">
<path d="M705.606 803.4L668.75 766.545L631.895 803.4L668.75 840.256L705.606 803.4Z" stroke="#6DF2F6" stroke-width="9.408" stroke-linecap="round" stroke-linejoin="round"/>
<path d="M779.289 803.401L742.433 766.546L705.578 803.401L742.433 840.257L779.289 803.401Z" stroke="#6DF2F6" stroke-width="9.408" stroke-linecap="round" stroke-linejoin="round"/>
</g>
<g clip-path="url(#clip31_2035_14298)">
<path d="M1097.61 568.192V574.342C1057.67 574.387 1019.37 590.273 991.132 618.516C962.889 646.759 947.002 685.051 946.958 724.992H940.808C940.855 683.421 957.39 643.565 986.785 614.17C1016.18 584.774 1056.04 568.239 1097.61 568.192Z" fill="#7FCFDD"/>
<path d="M1097.61 602.4V608.49C1036.3 608.49 986.409 660.756 986.409 724.992H980.322C980.322 657.394 1032.93 602.4 1097.61 602.4Z" fill="#7FCFDD"/>
<path d="M1097.61 643.593V649.854C1077.69 649.876 1058.59 657.799 1044.5 671.885C1030.41 685.972 1022.49 705.071 1022.47 724.992H1016.21C1016.23 703.411 1024.82 682.721 1040.08 667.461C1055.34 652.201 1076.03 643.617 1097.61 643.593Z" fill="#7FCFDD"/>
<path d="M1097.61 684.395V690.408C1088.44 690.419 1079.65 694.066 1073.16 700.549C1066.68 707.033 1063.03 715.823 1063.02 724.992H1057.01C1057.02 714.229 1061.3 703.91 1068.91 696.299C1076.53 688.689 1086.84 684.408 1097.61 684.395Z" fill="#7FCFDD"/>
</g>
<g clip-path="url(#clip32_2035_14298)">
<path d="M1160.23 647.4C1160.23 641.536 1155.48 636.783 1149.62 636.783C1143.75 636.783 1139 641.536 1139 647.4C1139 653.264 1143.75 658.017 1149.62 658.017C1155.48 658.017 1160.23 653.264 1160.23 647.4Z" fill="#7FCFDD" stroke="#7FCFDD" stroke-width="1.568" stroke-linejoin="round"/>
<path d="M1194.12 647.4C1194.12 641.536 1189.37 636.783 1183.51 636.783C1177.64 636.783 1172.89 641.536 1172.89 647.4C1172.89 653.264 1177.64 658.017 1183.51 658.017C1189.37 658.017 1194.12 653.264 1194.12 647.4Z" fill="#7FCFDD" stroke="#7FCFDD" stroke-width="1.568" stroke-linejoin="round"/>
<path d="M1228.02 647.4C1228.02 641.536 1223.26 636.783 1217.4 636.783C1211.54 636.783 1206.78 641.536 1206.78 647.4C1206.78 653.264 1211.54 658.017 1217.4 658.017C1223.26 658.017 1228.02 653.264 1228.02 647.4Z" fill="#7FCFDD" stroke="#7FCFDD" stroke-width="1.568" stroke-linejoin="round"/>
<path d="M1261.91 647.4C1261.91 641.536 1257.16 636.783 1251.29 636.783C1245.43 636.783 1240.68 641.536 1240.68 647.4C1240.68 653.264 1245.43 658.017 1251.29 658.017C1257.16 658.017 1261.91 653.264 1261.91 647.4Z" fill="#7FCFDD" stroke="#7FCFDD" stroke-width="1.568" stroke-linejoin="round"/>
<path d="M1295.8 647.4C1295.8 641.536 1291.05 636.783 1285.18 636.783C1279.32 636.783 1274.57 641.536 1274.57 647.4C1274.57 653.264 1279.32 658.017 1285.18 658.017C1291.05 658.017 1295.8 653.264 1295.8 647.4Z" fill="#7FCFDD" stroke="#7FCFDD" stroke-width="1.568" stroke-linejoin="round"/>
<path d="M1228.02 579.617C1228.02 573.753 1223.26 569 1217.4 569C1211.54 569 1206.78 573.753 1206.78 579.617C1206.78 585.481 1211.54 590.234 1217.4 590.234C1223.26 590.234 1228.02 585.481 1228.02 579.617Z" fill="#7FCFDD" stroke="#7FCFDD" stroke-width="1.568" stroke-linejoin="round"/>
<path d="M1228.02 613.508C1228.02 607.644 1223.26 602.891 1217.4 602.891C1211.54 602.891 1206.78 607.644 1206.78 613.508C1206.78 619.371 1211.54 624.125 1217.4 624.125C1223.26 624.125 1228.02 619.371 1228.02 613.508Z" fill="#7FCFDD" stroke="#7FCFDD" stroke-width="1.568" stroke-linejoin="round"/>
<path d="M1228.02 681.292C1228.02 675.429 1223.26 670.675 1217.4 670.675C1211.54 670.675 1206.78 675.429 1206.78 681.292C1206.78 687.156 1211.54 691.909 1217.4 691.909C1223.26 691.909 1228.02 687.156 1228.02 681.292Z" fill="#7FCFDD" stroke="#7FCFDD" stroke-width="1.568" stroke-linejoin="round"/>
<path d="M1228.02 715.183C1228.02 709.319 1223.26 704.566 1217.4 704.566C1211.54 704.566 1206.78 709.319 1206.78 715.183C1206.78 721.047 1211.54 725.8 1217.4 725.8C1223.26 725.8 1228.02 721.047 1228.02 715.183Z" fill="#7FCFDD" stroke="#7FCFDD" stroke-width="1.568" stroke-linejoin="round"/>
</g>
<g clip-path="url(#clip33_2035_14298)">
<path d="M1019.21 803.386L982.353 840.242L1019.21 877.098L1056.06 840.242L1019.21 803.386Z" stroke="#6DF2F6" stroke-width="9.408" stroke-linecap="round" stroke-linejoin="round"/>
<path d="M1019.21 729.703L982.354 766.559L1019.21 803.415L1056.07 766.559L1019.21 729.703Z" stroke="#6DF2F6" stroke-width="9.408" stroke-linecap="round" stroke-linejoin="round"/>
</g>
<g clip-path="url(#clip34_2035_14298)">
<path d="M1116 545.8V539.65C1155.94 539.605 1194.23 523.719 1222.48 495.476C1250.72 467.234 1266.61 428.941 1266.65 389H1272.8C1272.75 430.572 1256.22 470.427 1226.82 499.823C1197.43 529.218 1157.57 545.753 1116 545.8Z" fill="#7FCFDD"/>
<path d="M1116 511.593V505.502C1177.31 505.502 1227.2 453.236 1227.2 389H1233.29C1233.29 456.598 1180.68 511.593 1116 511.593Z" fill="#7FCFDD"/>
<path d="M1116 470.4V464.139C1135.92 464.117 1155.02 456.193 1169.11 442.107C1183.19 428.02 1191.12 408.921 1191.14 389H1197.4C1197.38 410.581 1188.79 431.271 1173.53 446.531C1158.27 461.791 1137.58 470.375 1116 470.4Z" fill="#7FCFDD"/>
<path d="M1116 429.597V423.584C1125.17 423.573 1133.96 419.926 1140.44 413.443C1146.93 406.96 1150.57 398.169 1150.58 389H1156.6C1156.58 399.763 1152.3 410.082 1144.69 417.693C1137.08 425.303 1126.76 429.585 1116 429.597Z" fill="#7FCFDD"/>
</g>
<g clip-path="url(#clip35_2035_14298)">
<path d="M1418.92 738.096C1418.92 719.674 1383.88 719.674 1383.88 701.248C1383.88 682.822 1418.92 682.832 1418.92 664.416C1418.92 645.999 1383.88 645.987 1383.88 627.558C1383.88 609.13 1418.92 609.133 1418.92 590.704" stroke="#32DAFF" stroke-width="9.408" stroke-linecap="round" stroke-linejoin="round"/>
</g>
<g clip-path="url(#clip36_2035_14298)">
<path d="M1332.82 803.4L1295.96 766.545L1259.11 803.4L1295.96 840.256L1332.82 803.4Z" stroke="#6DF2F6" stroke-width="9.408" stroke-linecap="round" stroke-linejoin="round"/>
<path d="M1406.5 803.401L1369.65 766.546L1332.79 803.401L1369.65 840.257L1406.5 803.401Z" stroke="#6DF2F6" stroke-width="9.408" stroke-linecap="round" stroke-linejoin="round"/>
</g>
<g clip-path="url(#clip37_2035_14298)">
<path d="M627.192 1038.61V1032.46C667.133 1032.41 705.425 1016.53 733.668 988.284C761.911 960.042 777.797 921.749 777.842 881.808H783.992C783.945 923.379 767.41 963.235 738.014 992.63C708.619 1022.03 668.763 1038.56 627.192 1038.61Z" fill="#7FCFDD"/>
<path d="M627.192 1004.4V998.31C688.5 998.31 738.391 946.044 738.391 881.808H744.478C744.478 949.406 691.867 1004.4 627.192 1004.4Z" fill="#7FCFDD"/>
<path d="M627.192 963.207V956.946C647.113 956.924 666.212 949.001 680.299 934.915C694.385 920.828 702.309 901.729 702.331 881.808H708.592C708.567 903.389 699.983 924.079 684.723 939.339C669.463 954.599 648.773 963.183 627.192 963.207Z" fill="#7FCFDD"/>
<path d="M627.192 922.405V916.392C636.361 916.381 645.151 912.734 651.635 906.251C658.118 899.767 661.765 890.977 661.776 881.808H667.789C667.777 892.571 663.495 902.89 655.885 910.501C648.274 918.111 637.955 922.392 627.192 922.405Z" fill="#7FCFDD"/>
</g>
<g clip-path="url(#clip38_2035_14298)">
<path d="M879.923 1033.9C879.923 1015.48 844.878 1015.48 844.878 997.056C844.878 978.63 879.923 978.64 879.923 960.224C879.923 941.807 844.878 941.795 844.878 923.366C844.878 904.937 879.923 904.941 879.923 886.512" stroke="#32DAFF" stroke-width="9.408" stroke-linecap="round" stroke-linejoin="round"/>
</g>
</g>
<defs>
<clipPath id="clip0_2035_14298">
<rect width="1513" height="887" fill="white"/>
</clipPath>
<clipPath id="clip1_2035_14298">
<rect width="156.8" height="156.8" fill="white" transform="matrix(0 1 -1 0 156.8 -59)"/>
</clipPath>
<clipPath id="clip2_2035_14298">
<rect width="156.8" height="156.8" fill="white" transform="matrix(0 -1 1 0 156.808 97.8)"/>
</clipPath>
<clipPath id="clip3_2035_14298">
<rect width="156.8" height="156.8" fill="white" transform="matrix(0 -1 1 0 0 254.608)"/>
</clipPath>
<clipPath id="clip4_2035_14298">
<rect width="156.8" height="156.8" fill="white" transform="matrix(0 -1 1 0 331 165.8)"/>
</clipPath>
<clipPath id="clip5_2035_14298">
<rect width="156.8" height="156.8" fill="white" transform="matrix(0 -1 1 0 470.404 97.8)"/>
</clipPath>
<clipPath id="clip6_2035_14298">
<rect width="156.8" height="156.8" fill="white" transform="matrix(0 -1 1 0 207 254.8)"/>
</clipPath>
<clipPath id="clip7_2035_14298">
<rect width="156.8" height="156.8" fill="white" transform="matrix(-1 0 0 -1 940.8 97.8)"/>
</clipPath>
<clipPath id="clip8_2035_14298">
<rect width="156.8" height="156.8" fill="white" transform="matrix(0 -1 1 0 627.192 147.608)"/>
</clipPath>
<clipPath id="clip9_2035_14298">
<rect width="156.8" height="156.8" fill="white" transform="matrix(0 1 -1 0 647.8 453)"/>
</clipPath>
<clipPath id="clip10_2035_14298">
<rect width="156.8" height="156.8" fill="white" transform="matrix(-1 0 0 -1 1254.4 97.8)"/>
</clipPath>
<clipPath id="clip11_2035_14298">
<rect width="156.8" height="156.8" fill="white" transform="matrix(0 -1 1 0 1139 328.8)"/>
</clipPath>
<clipPath id="clip12_2035_14298">
<rect width="156.8" height="156.8" fill="white" transform="matrix(0 -1 1 0 1285 335.8)"/>
</clipPath>
<clipPath id="clip13_2035_14298">
<rect width="156.8" height="156.8" fill="white" transform="matrix(-1 0 0 -1 156.8 568.204)"/>
</clipPath>
<clipPath id="clip14_2035_14298">
<rect width="156.8" height="156.8" fill="white" transform="matrix(0 1 -1 0 291.8 210)"/>
</clipPath>
<clipPath id="clip15_2035_14298">
<rect width="156.8" height="156.8" fill="white" transform="matrix(0 -1 1 0 174 512.8)"/>
</clipPath>
<clipPath id="clip16_2035_14298">
<rect width="156.8" height="156.8" fill="white" transform="matrix(0 -1 1 0 190 933.8)"/>
</clipPath>
<clipPath id="clip17_2035_14298">
<rect width="156.8" height="156.8" fill="white" transform="translate(412.509 448) rotate(36.6096)"/>
</clipPath>
<clipPath id="clip18_2035_14298">
<rect width="156.8" height="156.8" fill="white" transform="matrix(0 -1 1 0 224 755.8)"/>
</clipPath>
<clipPath id="clip19_2035_14298">
<rect width="156.8" height="156.8" fill="white" transform="matrix(0 1 -1 0 1261.8 738)"/>
</clipPath>
<clipPath id="clip20_2035_14298">
<rect width="156.8" height="156.8" fill="white" transform="matrix(0 1 -1 0 1115.8 35)"/>
</clipPath>
<clipPath id="clip21_2035_14298">
<rect width="156.8" height="156.8" fill="white" transform="matrix(-1 0 0 -1 1051.8 606.8)"/>
</clipPath>
<clipPath id="clip22_2035_14298">
<rect width="156.8" height="156.8" fill="white" transform="matrix(0 -1 1 0 1322 172.8)"/>
</clipPath>
<clipPath id="clip23_2035_14298">
<rect width="156.8" height="156.8" fill="white" transform="translate(1254.4 411.404)"/>
</clipPath>
<clipPath id="clip24_2035_14298">
<rect width="156.8" height="156.8" fill="white" transform="translate(1390 409)"/>
</clipPath>
<clipPath id="clip25_2035_14298">
<rect width="156.8" height="156.8" fill="white" transform="matrix(0 -1 1 0 61 721.8)"/>
</clipPath>
<clipPath id="clip26_2035_14298">
<rect width="156.8" height="156.8" fill="white" transform="matrix(-1 0 0 -1 156.8 881.8)"/>
</clipPath>
<clipPath id="clip27_2035_14298">
<rect width="156.8" height="156.8" fill="white" transform="matrix(0 -1 1 0 470.404 724.992)"/>
</clipPath>
<clipPath id="clip28_2035_14298">
<rect width="156.8" height="156.8" fill="white" transform="translate(709 449)"/>
</clipPath>
<clipPath id="clip29_2035_14298">
<rect width="156.8" height="156.8" fill="white" transform="translate(784 568.192)"/>
</clipPath>
<clipPath id="clip30_2035_14298">
<rect width="156.8" height="156.8" fill="white" transform="translate(627.192 725)"/>
</clipPath>
<clipPath id="clip31_2035_14298">
<rect width="156.8" height="156.8" fill="white" transform="matrix(0 -1 1 0 940.808 724.992)"/>
</clipPath>
<clipPath id="clip32_2035_14298">
<rect width="156.8" height="156.8" fill="white" transform="matrix(0 -1 1 0 1139 725.8)"/>
</clipPath>
<clipPath id="clip33_2035_14298">
<rect width="156.8" height="156.8" fill="white" transform="matrix(0 -1 1 0 940.808 881.8)"/>
</clipPath>
<clipPath id="clip34_2035_14298">
<rect width="156.8" height="156.8" fill="white" transform="matrix(0 1 -1 0 1272.8 389)"/>
</clipPath>
<clipPath id="clip35_2035_14298">
<rect width="156.8" height="156.8" fill="white" transform="matrix(-1 0 0 -1 1479.8 742.8)"/>
</clipPath>
<clipPath id="clip36_2035_14298">
<rect width="156.8" height="156.8" fill="white" transform="translate(1254.4 725)"/>
</clipPath>
<clipPath id="clip37_2035_14298">
<rect width="156.8" height="156.8" fill="white" transform="matrix(0 1 -1 0 783.992 881.808)"/>
</clipPath>
<clipPath id="clip38_2035_14298">
<rect width="156.8" height="156.8" fill="white" transform="matrix(-1 0 0 -1 940.8 1038.61)"/>
</clipPath>
</defs>
</svg>
