<svg xmlns="http://www.w3.org/2000/svg" width="32" height="32" viewBox="0 0 32 32" fill="none">
<g clip-path="url(#clip0_2035_14695)">
<path d="M30.7076 9.7075L26.9701 13.445C26.2151 22.1975 18.8338 29 10.0001 29C8.18506 29 6.68881 28.7125 5.55256 28.145C4.63631 27.6863 4.26131 27.195 4.16756 27.055C4.08397 26.9296 4.02978 26.787 4.00906 26.6378C3.98834 26.4885 4.00161 26.3365 4.04789 26.1931C4.09417 26.0497 4.17225 25.9186 4.27631 25.8096C4.38036 25.7007 4.5077 25.6166 4.64881 25.5638C4.68131 25.5513 7.67881 24.4 9.58256 22.2088C8.52679 21.3407 7.60516 20.3214 6.84756 19.1838C5.29756 16.8825 3.56256 12.885 4.09756 6.91125C4.11452 6.72143 4.18536 6.54041 4.30175 6.38951C4.41814 6.2386 4.57523 6.1241 4.75451 6.05948C4.93379 5.99486 5.12781 5.98281 5.31371 6.02476C5.49961 6.06671 5.66965 6.1609 5.80381 6.29625C5.84756 6.34 9.96381 10.4338 14.9963 11.7613V11C14.9944 10.2017 15.1522 9.41117 15.4605 8.67484C15.7688 7.93851 16.2213 7.2713 16.7913 6.7125C17.3449 6.15966 18.0037 5.7233 18.7287 5.42918C19.4537 5.13506 20.2302 4.98913 21.0126 5C22.062 5.01035 23.0909 5.29207 23.9993 5.81776C24.9076 6.34345 25.6645 7.09523 26.1963 8H30.0001C30.198 7.99985 30.3915 8.05841 30.556 8.16828C30.7206 8.27815 30.8489 8.43439 30.9247 8.61721C31.0004 8.80003 31.0202 9.00122 30.9816 9.19531C30.9429 9.38939 30.8476 9.56765 30.7076 9.7075Z" fill="#FAFBFF"/>
</g>
<defs>
<clipPath id="clip0_2035_14695">
<rect width="32" height="32" fill="white"/>
</clipPath>
</defs>
</svg>